<?xml version="1.0" encoding="UTF-8" standalone="no"?>
<!-- Created with Inkscape (http://www.inkscape.org/) -->
<!-- 
Created By Andrew Fitzsimon.
Much of this document has been manually cleaned and crafted in a text editor so that only the colour definitions and basic presentation related data remain in the XML. 
Changes to this document may compromise the structure of this palette.
-->
<svg
   xmlns:dc="http://purl.org/dc/elements/1.1/"
   xmlns:cc="http://web.resource.org/cc/"
   xmlns:rdf="http://www.w3.org/1999/02/22-rdf-syntax-ns#"
   xmlns:svg="http://www.w3.org/2000/svg"
   xmlns="http://www.w3.org/2000/svg"
   xmlns:xlink="http://www.w3.org/1999/xlink"
   xmlns:sodipodi="http://inkscape.sourceforge.net/DTD/sodipodi-0.dtd"
   xmlns:inkscape="http://www.inkscape.org/namespaces/inkscape"
   sodipodi:docbase="/home/kramer/NoteLabPossibleIcons/NoteLabIcons/dlg-neu"
   sodipodi:docname="copy_stroke.svg"
   inkscape:version="0.42.2"
   sodipodi:version="0.32"
   id="Etiquette"
   height="128"
   width="128"
   y="00"
   x="00"
   version="1.0">
  <metadata
     id="About">
    <rdf:RDF>
      <cc:Work
         rdf:about="">
        <dc:format>image/svg+xml</dc:format>
        <dc:type
           rdf:resource="http://purl.org/dc/dcmitype/StillImage" />
        <dc:creator>
          <cc:Agent>
            <dc:title>Andrew Fitzsimon</dc:title>
          </cc:Agent>
        </dc:creator>
        <dc:date>2004-12-25</dc:date>
        <dc:title>Etiquette Icon</dc:title>
        <cc:license
           rdf:resource="http://creativecommons.org/licenses/by/2.0/" />
        <dc:rights>
          <cc:Agent>
            <dc:title>Andrew Fitzsimon</dc:title>
          </cc:Agent>
        </dc:rights>
      </cc:Work>
      <cc:License
         rdf:about="http://creativecommons.org/licenses/by/2.0/">
        <cc:permits
           rdf:resource="http://web.resource.org/cc/Reproduction" />
        <cc:permits
           rdf:resource="http://web.resource.org/cc/Distribution" />
        <cc:requires
           rdf:resource="http://web.resource.org/cc/Notice" />
        <cc:requires
           rdf:resource="http://web.resource.org/cc/Attribution" />
        <cc:prohibits
           rdf:resource="http://web.resource.org/cc/CommercialUse" />
        <cc:permits
           rdf:resource="http://web.resource.org/cc/DerivativeWorks" />
        <cc:requires
           rdf:resource="http://web.resource.org/cc/ShareAlike" />
      </cc:License>
    </rdf:RDF>
  </metadata>
  <sodipodi:namedview
     gridempopacity="0.082352941"
     gridempcolor="#3f3fff"
     gridempspacing="2"
     gridopacity="0.082352941"
     gridcolor="#3f3fff"
     inkscape:grid-bbox="false"
     showborder="true"
     gridtolerance="40pt"
     inkscape:grid-points="false"
     gridoriginx="0pt"
     gridoriginy="0.0000000pt"
     gridspacingy="8.0000000pt"
     gridspacingx="8.0000000pt"
     showgrid="false"
     inkscape:current-layer="Etiquette"
     inkscape:window-y="180"
     inkscape:window-x="324"
     inkscape:window-height="656"
     inkscape:window-width="844"
     inkscape:cy="53.415206"
     inkscape:cx="163.76859"
     inkscape:zoom="2.0000000"
     inkscape:pageshadow="0"
     inkscape:pageopacity="0.0"
     borderopacity="1.0"
     bordercolor="#666666"
     pagecolor="#ffffff"
     id="base"
     showguides="true"
     inkscape:guide-bbox="true" />
  <defs
     id="Gradients">
    <linearGradient
       id="linearGradient2201">
      <stop
         id="stop2203"
         offset="0.0000000"
         style="stop-color:#ff8300;stop-opacity:1.0000000;" />
      <stop
         id="stop2205"
         offset="1.0000000"
         style="stop-color:#ffc500;stop-opacity:1.0000000;" />
    </linearGradient>
    <linearGradient
       id="linearGradient2195">
      <stop
         style="stop-color:#ff0000;stop-opacity:1;"
         offset="0"
         id="stop2197" />
      <stop
         style="stop-color:#ff5400;stop-opacity:1.0000000;"
         offset="1.0000000"
         id="stop2199" />
    </linearGradient>
    <linearGradient
       id="linearGradient2189">
      <stop
         id="stop2191"
         offset="0"
         style="stop-color:#ff0000;stop-opacity:1;" />
      <stop
         id="stop2193"
         offset="1.0000000"
         style="stop-color:#ff5400;stop-opacity:1.0000000;" />
    </linearGradient>
    <linearGradient
       id="linearGradient2183"
       inkscape:collect="always">
      <stop
         id="stop2185"
         offset="0"
         style="stop-color:#ffffff;stop-opacity:1;" />
      <stop
         id="stop2187"
         offset="1"
         style="stop-color:#ffffff;stop-opacity:0;" />
    </linearGradient>
    <linearGradient
       id="linearGradient3783">
      <stop
         style="stop-color:#ff0000;stop-opacity:1;"
         offset="0"
         id="stop3785" />
      <stop
         style="stop-color:#ff5400;stop-opacity:1.0000000;"
         offset="1.0000000"
         id="stop3787" />
    </linearGradient>
    <linearGradient
       inkscape:collect="always"
       id="linearGradient3775">
      <stop
         style="stop-color:#ffffff;stop-opacity:1;"
         offset="0"
         id="stop3777" />
      <stop
         style="stop-color:#ffffff;stop-opacity:0;"
         offset="1"
         id="stop3779" />
    </linearGradient>
    <linearGradient
       id="linearGradient3035">
      <stop
         id="stop3036"
         offset="0.0000000"
         style="stop-color:#cce1e1;stop-opacity:1.0000000;" />
      <stop
         id="stop3037"
         offset="1.0000000"
         style="stop-color:#cce1e1;stop-opacity:0.33898306;" />
    </linearGradient>
    <linearGradient
       id="TransparentWhite">
      <stop
         id="stopwhitefull"
         offset="0"
         style="stop-color:#ffffff;stop-opacity:0;" />
      <stop
         id="stopwhitetransparent"
         offset="1"
         style="stop-color:#ffffff;stop-opacity:1;" />
    </linearGradient>
    <linearGradient
       id="linearGradient2600">
      <stop
         id="stop2601"
         offset="0.0000000"
         style="stop-color:#000000;stop-opacity:1.0000000;" />
      <stop
         id="stop2602"
         offset="1"
         style="stop-color:#000000;stop-opacity:0;" />
    </linearGradient>
    <linearGradient
       id="linearGradient2381">
      <stop
         id="stop2382"
         offset="0.0000000"
         style="stop-color:#000000;stop-opacity:0.47058824;" />
      <stop
         id="stop2384"
         offset="0.31578946"
         style="stop-color:#000000;stop-opacity:0.19191919;" />
      <stop
         id="stop2383"
         offset="1.0000000"
         style="stop-color:#6f6f6f;stop-opacity:0.0000000;" />
    </linearGradient>
    <linearGradient
       id="WhiteTransparent">
      <stop
         id="stopWhiteFull"
         offset="0"
         style="stop-color:#ffffff;stop-opacity:1;" />
      <stop
         id="stopWhiteTransparent"
         offset="1"
         style="stop-color:#ffffff;stop-opacity:0;" />
    </linearGradient>
    <linearGradient
       id="MaterialSoftShadow">
      <stop
         id="stop2619"
         offset="0"
         style="stop-color:#000000;stop-opacity:0.215;" />
      <stop
         id="stop2621"
         offset="0.50000000"
         style="stop-color:#000000;stop-opacity:0.098;" />
      <stop
         id="stop2620"
         offset="1"
         style="stop-color:#000000;stop-opacity:0;" />
    </linearGradient>
    <linearGradient
       id="BlackTransparent">
      <stop
         id="stopBlackFull"
         offset="0"
         style="stop-color:#000000;stop-opacity:1;" />
      <stop
         id="stopBlackTransparent"
         offset="1"
         style="stop-color:#000000;stop-opacity:0;" />
    </linearGradient>
    <linearGradient
       id="linearGradient2225">
      <stop
         style="stop-color:#ff0000;stop-opacity:1.0000000;"
         offset="0.0000000"
         id="stop2226" />
      <stop
         style="stop-color:#ff5b00;stop-opacity:1.0000000;"
         offset="1.0000000"
         id="stop2227" />
    </linearGradient>
    <linearGradient
       id="linearGradient2990">
      <stop
         id="stop2992"
         offset="0.0000000"
         style="stop-color:#ff0000;stop-opacity:1.0000000;" />
      <stop
         id="stop2994"
         offset="1.0000000"
         style="stop-color:#ff5b00;stop-opacity:1.0000000;" />
    </linearGradient>
    <linearGradient
       inkscape:collect="always"
       xlink:href="#linearGradient3775"
       id="linearGradient3781"
       x1="-87.500000"
       y1="-4.8393440"
       x2="-63.000000"
       y2="39.660656"
       gradientUnits="userSpaceOnUse" />
    <linearGradient
       inkscape:collect="always"
       xlink:href="#linearGradient3783"
       id="linearGradient3789"
       x1="-95.531250"
       y1="38.625000"
       x2="-31.945671"
       y2="38.625000"
       gradientUnits="userSpaceOnUse" />
    <linearGradient
       inkscape:collect="always"
       xlink:href="#linearGradient2183"
       id="linearGradient2092"
       gradientUnits="userSpaceOnUse"
       gradientTransform="matrix(-1.779282,0.000000,0.000000,1.779282,-48.34277,-5.089257)"
       x1="-87.500000"
       y1="-4.8393440"
       x2="-63.000000"
       y2="39.660656" />
    <linearGradient
       inkscape:collect="always"
       xlink:href="#BlackTransparent"
       id="linearGradient2095"
       gradientUnits="userSpaceOnUse"
       gradientTransform="matrix(-1.779282,0.000000,0.000000,1.779282,-48.34277,-5.089257)"
       x1="-95.531250"
       y1="38.625000"
       x2="-31.945671"
       y2="38.625000" />
    <linearGradient
       inkscape:collect="always"
       xlink:href="#BlackTransparent"
       id="linearGradient2090"
       gradientUnits="userSpaceOnUse"
       gradientTransform="matrix(-1.779282,5.845176e-17,1.387989e-16,1.779282,-48.34277,-5.089257)"
       x1="-95.531250"
       y1="38.625000"
       x2="-31.945671"
       y2="38.625000" />
    <linearGradient
       inkscape:collect="always"
       xlink:href="#linearGradient2183"
       id="linearGradient2093"
       gradientUnits="userSpaceOnUse"
       gradientTransform="matrix(-1.779282,5.845176e-17,1.387989e-16,1.779282,-48.34277,-5.089257)"
       x1="-87.500000"
       y1="-4.8393440"
       x2="-63.000000"
       y2="39.660656" />
  </defs>
  <path
     style="fill:#0000d6;fill-opacity:1.0000000;fill-rule:nonzero;stroke:none;stroke-width:1.0000000px;stroke-linecap:butt;stroke-linejoin:miter;stroke-opacity:1.0000000"
     d="M 42.686012,5.4586950 C 41.559674,7.4255240 40.021424,10.476403 41.792672,12.364874 C 43.274163,14.117037 48.997604,10.913904 45.032798,13.258738 C 43.515609,14.206827 40.847293,16.091689 43.157740,13.548854 C 43.675291,10.805130 37.064525,14.663966 40.614912,12.841946 C 42.104482,12.053413 46.832817,9.6116790 42.822114,11.712525 C 41.409979,12.436815 38.256642,14.122829 37.941054,14.192116 C 39.011569,13.630432 43.151304,11.451994 42.342117,11.934088 C 40.153985,13.159954 35.402451,15.476124 34.644835,15.719758 C 35.889057,15.075516 39.405349,13.451918 38.890978,13.264269 C 32.647143,16.437161 28.200442,21.749535 23.801502,26.742760 C 19.129399,32.015088 16.641844,39.055898 17.718049,45.807184 C 18.835130,50.015221 20.525494,54.233530 23.303248,57.775033 C 26.070752,61.381885 31.122048,62.284625 35.651543,61.979161 C 40.718700,62.280804 45.651552,60.670370 50.691421,60.878709 C 53.995993,61.270391 55.814512,64.348654 55.711173,67.169518 C 56.107777,70.516144 55.318130,73.971693 52.864451,76.577395 C 48.786242,81.687996 42.239214,85.040310 35.467883,86.132454 C 33.143084,86.349626 30.184074,83.973960 29.907385,82.571312 C 31.724334,81.558309 33.541283,80.545307 35.358233,79.532305 C 37.425237,82.482424 41.213475,83.014780 44.601912,81.759608 C 48.388121,81.420772 39.509206,84.118646 43.427739,81.858851 C 46.487948,80.052501 48.728414,76.934811 49.631138,73.714850 C 49.639884,70.827209 50.470465,66.939473 47.312221,65.132369 C 44.050867,63.521072 40.271720,65.119898 36.829158,65.274130 C 32.145824,65.613187 27.210473,66.038572 22.684981,64.637721 C 16.724794,62.278319 14.559596,56.276449 12.508859,51.133453 C 10.359331,45.215954 11.812350,38.637131 14.783983,33.174787 C 18.328206,27.747811 23.054036,23.031530 27.924964,18.576036 C 30.778205,16.350845 34.182970,14.835397 37.431261,13.159825 C 36.142223,13.841014 32.421550,15.830435 32.634846,15.686656 C 35.548899,14.295831 38.434661,12.216591 41.442702,11.396541 C 39.968033,12.287548 36.041664,14.178826 35.829881,14.085449 C 37.625885,13.147192 42.656472,10.612489 42.479628,10.795256 C 40.976808,11.503076 37.853341,13.384543 37.377147,13.330954 C 40.253180,11.550879 43.231356,9.6461180 46.669929,8.9359470 C 51.785481,9.0304890 48.163975,14.003386 45.356759,14.862854 C 42.721908,16.039930 39.363341,16.980852 36.509239,16.016300 C 33.758688,14.369578 35.356633,10.969788 35.997251,8.6476950 C 36.344691,7.2804120 38.298595,7.3399950 39.443748,6.6822840 C 40.524503,6.2744210 41.605258,5.8665580 42.686012,5.4586950 z "
     id="path2849" />
  <path
     style="fill:#0000d6;fill-opacity:1.0000000;fill-rule:nonzero;stroke:none;stroke-width:1.0000000px;stroke-linecap:butt;stroke-linejoin:miter;stroke-opacity:1.0000000"
     d="M 96.426800,37.873277 C 95.300462,39.840106 93.762212,42.890985 95.533460,44.779456 C 97.014950,46.531619 102.73839,43.328486 98.773590,45.673320 C 97.256400,46.621409 94.588081,48.506271 96.898527,45.963436 C 97.416080,43.219712 90.805313,47.078549 94.355700,45.256528 C 95.845270,44.467995 100.57361,42.026262 96.562901,44.127107 C 95.150767,44.851397 91.997430,46.537411 91.681842,46.606698 C 92.752356,46.045014 96.892092,43.866576 96.082905,44.348670 C 93.894773,45.574536 89.143239,47.890706 88.385623,48.134340 C 89.629844,47.490098 93.146137,45.866500 92.631766,45.678851 C 86.387931,48.851743 81.941230,54.164117 77.542290,59.157342 C 72.870186,64.429670 70.382632,71.470480 71.458837,78.221766 C 72.575918,82.429803 74.266282,86.648112 77.044036,90.189615 C 79.811540,93.796467 84.862835,94.699207 89.392331,94.393743 C 94.459488,94.695386 99.392340,93.084952 104.43221,93.293291 C 107.73678,93.684973 109.55530,96.763236 109.45196,99.584100 C 109.84856,102.93073 109.05892,106.38627 106.60524,108.99198 C 102.52703,114.10258 95.980002,117.45489 89.208670,118.54704 C 86.883872,118.76421 83.924862,116.38855 83.648172,114.98590 C 85.465122,113.97289 87.282071,112.95989 89.099021,111.94689 C 91.166025,114.89700 94.954263,115.42936 98.342700,114.17419 C 102.12891,113.83536 93.249993,116.53323 97.168530,114.27343 C 100.22874,112.46709 102.46920,109.34939 103.37193,106.12943 C 103.38067,103.24179 104.21125,99.354060 101.05301,97.546950 C 97.791660,95.935654 94.012508,97.534480 90.569946,97.688710 C 85.886611,98.027770 80.951261,98.453150 76.425769,97.052303 C 70.465582,94.692901 68.300384,88.691031 66.249647,83.548035 C 64.100119,77.630536 65.553138,71.051713 68.524771,65.589369 C 72.068993,60.162393 76.794823,55.446112 81.665752,50.990618 C 84.518993,48.765427 87.923758,47.249979 91.172049,45.574408 C 89.883011,46.255596 86.162338,48.245017 86.375634,48.101239 C 89.289687,46.710413 92.175449,44.631173 95.183490,43.811123 C 93.708821,44.702130 89.782452,46.593408 89.570669,46.500031 C 91.366672,45.561775 96.397259,43.027071 96.220416,43.209838 C 94.717596,43.917659 91.594129,45.799125 91.117935,45.745536 C 93.993968,43.965461 96.972144,42.060700 100.41072,41.350529 C 105.52627,41.445072 101.90476,46.417968 99.097550,47.277437 C 96.462695,48.454512 93.104129,49.395434 90.250027,48.430883 C 87.499476,46.784160 89.097421,43.384370 89.738039,41.062278 C 90.085479,39.694994 92.039383,39.754578 93.184536,39.096866 C 94.265291,38.689003 95.346046,38.281140 96.426800,37.873277 z "
     id="path1359" />
</svg>
